<?xml version="1.0" encoding="UTF-8" standalone="no"?>
<!-- Created with Inkscape (http://www.inkscape.org/) -->

<svg
   width="640"
   height="400"
   viewBox="0 0 640 400"
   version="1.1"
   id="svg1"
   sodipodi:docname="awb.svg"
   inkscape:version="1.3.2 (091e20ef0f, 2023-11-25)"
   xmlns:inkscape="http://www.inkscape.org/namespaces/inkscape"
   xmlns:sodipodi="http://sodipodi.sourceforge.net/DTD/sodipodi-0.dtd"
   xmlns="http://www.w3.org/2000/svg"
   xmlns:svg="http://www.w3.org/2000/svg">
  <sodipodi:namedview
     id="namedview1"
     pagecolor="#505050"
     bordercolor="#eeeeee"
     borderopacity="1"
     inkscape:showpageshadow="0"
     inkscape:pageopacity="0"
     inkscape:pagecheckerboard="0"
     inkscape:deskcolor="#505050"
     inkscape:document-units="px"
     inkscape:zoom="2.0125022"
     inkscape:cx="319.99965"
     inkscape:cy="199.99978"
     inkscape:window-width="1920"
     inkscape:window-height="1011"
     inkscape:window-x="0"
     inkscape:window-y="0"
     inkscape:window-maximized="1"
     inkscape:current-layer="layer1" />
  <defs
     id="defs1" />
  <g
     inkscape:label="Ebene 1"
     inkscape:groupmode="layer"
     id="layer1">
    <rect
       style="fill:none;stroke:#ffffff;stroke-width:40;stroke-linecap:butt;stroke-linejoin:round;stroke-dasharray:none;stroke-opacity:1"
       id="rect1"
       width="600"
       height="360"
       x="19.291731"
       y="19.291731" />
    <path
       style="font-size:266.667px;fill:#ffffff;stroke-width:38.583;stroke-linejoin:bevel"
       d="m 135.29901,226.10689 q -29.03646,0 -40.234374,6.64062 -11.197917,6.64063 -11.197917,22.65625 0,12.76042 8.333334,20.31251 8.463547,7.42187 22.916667,7.42187 19.92188,0 31.90105,-14.0625 12.10937,-14.19271 12.10937,-37.63021 v -5.33854 z m 47.78647,-9.89584 v 83.20313 h -23.95834 v -22.13541 q -8.20312,13.28125 -20.44271,19.66146 -12.23958,6.25 -29.94792,6.25 -22.395833,0 -35.677084,-12.5 -13.151042,-12.63021 -13.151042,-33.72397 0,-24.60937 16.406251,-37.10937 16.536459,-12.5 49.218755,-12.5 h 33.59375 v -2.34375 q 0,-16.53646 -10.9375,-25.52084 -10.80729,-9.11458 -30.46875,-9.11458 -12.5,0 -24.348962,2.99479 -11.848959,2.99479 -22.78646,8.98437 v -22.13541 q 13.151042,-5.07813 25.520835,-7.55209 12.369797,-2.60417 24.088547,-2.60417 31.64062,0 47.26563,16.40626 15.625,16.40625 15.625,49.73958 z m 35.41666,-62.63021 h 23.95834 l 29.94792,113.80209 29.81771,-113.80209 h 28.25521 l 29.94792,113.80209 29.81771,-113.80209 h 23.95833 L 376.05424,299.41418 H 347.79903 L 316.41882,179.88293 284.9084,299.41418 h -28.25521 z m 336.71877,73.04688 q 0,-26.43229 -10.9375,-41.40625 -10.80729,-15.10417 -29.81771,-15.10417 -19.01042,0 -29.94792,15.10417 -10.80729,14.97396 -10.80729,41.40625 0,26.43229 10.80729,41.53646 10.9375,14.97396 29.94792,14.97396 19.01042,0 29.81771,-14.97396 10.9375,-15.10417 10.9375,-41.53646 z m -81.51042,-50.91146 q 7.55208,-13.02084 19.01042,-19.27084 11.58854,-6.38021 27.60417,-6.38021 26.5625,0 43.09896,21.09376 16.66667,21.09375 16.66667,55.46875 0,34.375 -16.66667,55.46875 -16.53646,21.09376 -43.09896,21.09376 -16.01563,0 -27.60417,-6.25 -11.45834,-6.38021 -19.01042,-19.40105 v 21.875 H 449.62195 V 96.810002 h 24.08854 z"
       id="text1"
       aria-label="awb" />
  </g>
</svg>
