<?xml version="1.0" encoding="UTF-8" standalone="no"?>
<!-- Created with Inkscape (http://www.inkscape.org/) -->

<svg
   width="400"
   height="400"
   viewBox="0 0 400 400"
   version="1.1"
   id="svg1"
   sodipodi:docname="fps.svg"
   inkscape:version="1.3.2 (091e20ef0f, 2023-11-25)"
   xmlns:inkscape="http://www.inkscape.org/namespaces/inkscape"
   xmlns:sodipodi="http://sodipodi.sourceforge.net/DTD/sodipodi-0.dtd"
   xmlns="http://www.w3.org/2000/svg"
   xmlns:svg="http://www.w3.org/2000/svg">
  <sodipodi:namedview
     id="namedview1"
     pagecolor="#505050"
     bordercolor="#eeeeee"
     borderopacity="1"
     inkscape:showpageshadow="0"
     inkscape:pageopacity="0"
     inkscape:pagecheckerboard="0"
     inkscape:deskcolor="#505050"
     inkscape:document-units="px"
     inkscape:zoom="0.95833333"
     inkscape:cx="260.86957"
     inkscape:cy="105.91304"
     inkscape:window-width="1920"
     inkscape:window-height="1011"
     inkscape:window-x="0"
     inkscape:window-y="0"
     inkscape:window-maximized="1"
     inkscape:current-layer="layer1" />
  <defs
     id="defs1">
    <inkscape:path-effect
       effect="powerstroke"
       id="path-effect19"
       is_visible="true"
       lpeversion="1.3"
       scale_width="1"
       interpolator_type="CubicBezierJohan"
       interpolator_beta="0.2"
       start_linecap_type="zerowidth"
       end_linecap_type="zerowidth"
       offset_points="0,63.699696"
       linejoin_type="extrp_arc"
       miter_limit="4"
       not_jump="false"
       sort_points="true"
       message="&lt;b&gt;Strg + Klick&lt;/b&gt; und Verschieben eines Anfassers" />
    <inkscape:path-effect
       effect="powerstroke"
       id="path-effect18"
       is_visible="true"
       lpeversion="1.3"
       scale_width="1"
       interpolator_type="CubicBezierJohan"
       interpolator_beta="0.2"
       start_linecap_type="zerowidth"
       end_linecap_type="zerowidth"
       offset_points="0,63.699696"
       linejoin_type="extrp_arc"
       miter_limit="4"
       not_jump="false"
       sort_points="true"
       message="&lt;b&gt;Strg + Klick&lt;/b&gt; und Verschieben eines Anfassers" />
    <inkscape:path-effect
       effect="powerstroke"
       id="path-effect16"
       is_visible="true"
       lpeversion="1.3"
       scale_width="1"
       interpolator_type="CubicBezierJohan"
       interpolator_beta="0.2"
       start_linecap_type="zerowidth"
       end_linecap_type="zerowidth"
       offset_points="0,18.867925"
       linejoin_type="extrp_arc"
       miter_limit="4"
       not_jump="false"
       sort_points="true"
       message="&lt;b&gt;Strg + Klick&lt;/b&gt; und Verschieben eines Anfassers" />
    <inkscape:path-effect
       effect="fill_between_many"
       method="bsplinespiro"
       autoreverse="false"
       close="false"
       join="false"
       linkedpaths="#path16,0,1"
       id="path-effect17" />
  </defs>
  <g
     inkscape:label="Ebene 1"
     inkscape:groupmode="layer"
     id="layer1">
    <path
       style="font-style:italic;font-size:266.667px;font-family:'TeX Gyre Termes';-inkscape-font-specification:'TeX Gyre Termes, Italic';fill:#ffffff;stroke-width:20;stroke-linecap:round;stroke-linejoin:round"
       d="m 180.13336,99.333335 c 0,-9.866679 -9.86668,-17.333354 -22.93337,-17.333354 -12.80001,0 -22.93336,5.600007 -32.53337,17.333354 -8.26668,10.666675 -13.86668,23.200025 -21.86669,49.333395 H 78.266565 l -1.866669,8.53334 h 24.000034 l -23.4667,112.00014 c -6.133341,28.80003 -14.666685,43.20005 -25.866698,43.20005 -3.200004,0 -5.33334,-1.86667 -5.33334,-4.26667 0,-1.06667 0.266667,-1.6 1.066668,-2.93334 1.066668,-1.6 1.333335,-2.66667 1.333335,-4.26667 0,-5.60001 -4.800006,-10.13334 -10.400013,-10.13334 -5.600007,0 -9.866679,4.8 -9.866679,10.93334 0,9.33335 9.066678,16.26669 21.066693,16.26669 23.733362,0 42.133385,-26.13337 53.333394,-75.46676 l 19.20003,-85.33344 h 29.0667 l 1.6,-8.53334 h -28.80003 c 7.73334,-42.13339 17.60002,-60.800075 32.53337,-60.800075 3.73334,0 5.86667,1.333335 5.86667,3.46667 0,0 -0.26666,1.333335 -1.06666,2.400003 -1.33334,2.133336 -1.60001,3.466671 -1.60001,5.600007 0,6.400005 4.00001,10.666675 9.86668,10.666675 6.13334,0 11.20002,-4.8 11.20002,-10.666675 z m 86.1334,79.200095 c 0,-20.80002 -11.46668,-33.33337 -30.6667,-33.33337 -17.33336,0 -30.13337,8.53334 -45.60006,30.13337 l 8.26668,-29.0667 c 0,0 -0.53333,-1.06667 -1.33334,-1.06667 h -0.26666 l -41.06672,5.86667 0.53334,4.00001 c 8,0 17.33335,0 17.33335,7.20001 0,3.2 -9.33335,40.00004 -18.93336,75.46675 l -15.46668,59.73341 c -2.66667,12.26668 -6.40001,15.46669 -17.86669,15.73335 v 4.26667 h 54.66673 v -4 c -12.53335,0 -17.06668,-2.13334 -17.06668,-8.00001 0,-3.73334 4.53333,-23.73336 9.86667,-44.26672 6.66668,3.46667 11.46668,4.53334 17.60003,4.53334 38.93338,0 80.00009,-44.53339 80.00009,-87.20011 z m -24.00003,0.8 c 0,17.60002 -7.20001,39.73338 -18.40002,56.00007 -11.46668,16.80002 -24.53336,25.33337 -38.66671,25.33337 -7.46668,0 -12.80002,-4.00001 -12.80002,-9.86668 0,-9.06668 9.33335,-43.73339 17.33336,-63.73341 7.2,-18.13336 22.66669,-31.20004 36.00004,-30.40004 11.46668,0.53333 16.53335,7.46667 16.53335,22.66669 z m 113.33348,51.7334 c 0,-10.40001 -5.60001,-21.86669 -18.13336,-37.33338 -10.13335,-12.53335 -14.40002,-20.80002 -14.40002,-28.00003 0,-9.06668 5.60001,-14.40002 14.93335,-14.40002 13.86669,0 21.8667,9.86668 24.53337,30.6667 h 4.26667 l 5.33334,-37.06671 h -3.73334 c -2.13334,3.73334 -4,4.80001 -8.00001,4.80001 -2.13333,0 -4.53334,-0.53334 -9.60001,-1.86667 -6.66668,-2.13334 -10.40001,-2.66667 -14.93335,-2.66667 -19.73336,0 -32.26671,11.46668 -32.26671,29.33337 0,8.53334 5.60001,20.00002 16.80002,34.40004 10.40001,13.60002 14.93335,22.93336 14.93335,30.6667 0,12.26668 -8.00001,20.53336 -19.73335,20.53336 -14.93336,0 -22.93336,-10.93335 -27.20004,-36.26671 h -4.26667 l -5.33334,42.40005 h 4.26667 c 2.40001,-4.53334 3.46667,-5.6 6.40001,-5.6 2.93334,0 7.73334,1.06666 13.06668,2.4 6.13334,1.86667 10.13335,2.66667 14.66669,2.66667 22.40003,0 38.40005,-14.40002 38.40005,-34.66671 z"
       id="text20"
       aria-label="fps" />
  </g>
</svg>
