<?xml version="1.0" encoding="UTF-8" standalone="no"?>
<!-- Created with Inkscape (http://www.inkscape.org/) -->

<svg
   width="640"
   height="400"
   viewBox="0 0 640 400"
   version="1.1"
   id="svg1"
   sodipodi:docname="iso.svg"
   inkscape:version="1.3.2 (091e20ef0f, 2023-11-25)"
   xmlns:inkscape="http://www.inkscape.org/namespaces/inkscape"
   xmlns:sodipodi="http://sodipodi.sourceforge.net/DTD/sodipodi-0.dtd"
   xmlns="http://www.w3.org/2000/svg"
   xmlns:svg="http://www.w3.org/2000/svg">
  <sodipodi:namedview
     id="namedview1"
     pagecolor="#505050"
     bordercolor="#eeeeee"
     borderopacity="1"
     inkscape:showpageshadow="0"
     inkscape:pageopacity="0"
     inkscape:pagecheckerboard="0"
     inkscape:deskcolor="#505050"
     inkscape:document-units="px"
     inkscape:zoom="1"
     inkscape:cx="314"
     inkscape:cy="251.5"
     inkscape:window-width="1920"
     inkscape:window-height="1011"
     inkscape:window-x="0"
     inkscape:window-y="0"
     inkscape:window-maximized="1"
     inkscape:current-layer="layer1" />
  <defs
     id="defs1" />
  <g
     inkscape:label="Ebene 1"
     inkscape:groupmode="layer"
     id="layer1">
    <rect
       style="fill:none;stroke:#ffffff;stroke-width:40;stroke-linecap:butt;stroke-linejoin:round;stroke-dasharray:none;stroke-opacity:1"
       id="rect1"
       width="600"
       height="360"
       x="20"
       y="20" />
    <path
       style="font-size:320px;fill:#ffffff;stroke-width:10;stroke-linejoin:bevel"
       d="M 69.999981,83.203247 H 101.56248 V 316.4845 H 69.999981 Z m 234.218749,7.65625 v 30.781253 q -17.96875,-8.59375 -33.90625,-12.8125 -15.9375,-4.21875 -30.78125,-4.21875 -25.78125,0 -39.84375,10 -13.90625,10 -13.90625,28.4375 0,15.46875 9.21875,23.4375 9.375,7.8125 35.3125,12.65625 l 19.0625,3.90625 q 35.3125,6.71875 52.03125,23.75 16.875,16.875 16.875,45.3125 0,33.90625 -22.8125,51.40625 -22.65625,17.5 -66.5625,17.5 -16.5625,0 -35.3125,-3.75 -18.59375,-3.75 -38.59375,-11.09375 v -32.5 q 19.21875,10.78125 37.65625,16.25 18.4375,5.46875 36.25,5.46875 27.03125,0 41.71875,-10.625 14.6875,-10.625 14.6875,-30.3125 0,-17.1875 -10.625,-26.875 -10.46875,-9.6875 -34.53125,-14.53125 l -19.21875,-3.75 q -35.3125,-7.03125 -51.09375,-22.03125 -15.78125,-15 -15.78125,-41.71875 0,-30.9375 21.71875,-48.750003 21.875,-17.8125 60.15625,-17.8125 16.40625,0 33.4375,2.96875 17.03125,2.96875 34.84375,8.90625 z M 462.18748,104.6095 q -34.375,0 -54.6875,25.625 -20.15625,25.625 -20.15625,69.84375 0,44.0625 20.15625,69.6875 20.3125,25.625 54.6875,25.625 34.375,0 54.375,-25.625 20.15625,-25.625 20.15625,-69.6875 0,-44.21875 -20.15625,-69.84375 -20,-25.625 -54.375,-25.625 z m 0,-25.625003 q 49.0625,0 78.4375,32.968753 29.375,32.8125 29.375,88.125 0,55.15625 -29.375,88.125 -29.375,32.8125 -78.4375,32.8125 -49.21875,0 -78.75,-32.8125 -29.375,-32.8125 -29.375,-88.125 0,-55.3125 29.375,-88.125 29.53125,-32.968753 78.75,-32.968753 z"
       id="text1"
       aria-label="ISO" />
  </g>
</svg>
